# xmcd CD database file
#
# Track frame offsets:
#	150
#	10799
#	22047
#	33872
#	44367
#	55302
#	67114
#	76127
#	83939
#	95179
#	106147
#	117419
#	129974
#	142724
#	154724
#
# Disc length: 2194 seconds
#
# Revision: 0
# Processed by: cddbd v1.5.2PL0 Copyright (c) Steve Scherf et al.
# Submitted via: CDex 1.51
#
DISCID=bb08900f
DTITLE=Paul Gayten - Chess King Of New Orleans
DYEAR=1900
DGENRE=Blues
TTITLE0=You Better Believe It
TTITLE1=Mother Roux
TTITLE2=Down Boy
TTITLE3=Nervous Boogie
TTITLE4=For You My Love
TTITLE5=The Sweeper
TTITLE6=Music Goes Round And Round
TTITLE7=Windy
TTITLE8=Get It
TTITLE9=Tickle Toe
TTITLE10=Hot Cross Buns
TTITLE11=The Hunch
TTITLE12=Driving Home, Part 2
TTITLE13=Right To Love You (with Myrtle Jones)
TTITLE14=Flat Foot Sam (T.V. Slim)
EXTD=
EXTT0=
EXTT1=
EXTT2=
EXTT3=
EXTT4=
EXTT5=
EXTT6=
EXTT7=
EXTT8=
EXTT9=
EXTT10=
EXTT11=
EXTT12=
EXTT13=
EXTT14=
PLAYORDER=
